<svg xmlns="http://www.w3.org/2000/svg" width="55" height="56" viewBox="0 0 55 56" fill="none">
    <path d="M1.83333 55.4121H53.1667C54.1777 55.4121 55 54.5935 55 53.5868V51.7615C55 51.0888 54.6287 50.5065 54.0833 50.1898V48.1108C54.0833 47.1041 53.2611 46.2854 52.25 46.2854V15.9136C52.7954 15.5969 53.1667 15.0147 53.1667 14.342V12.5167C54.1777 12.5167 55 11.6971 55 10.6904V8.64971C55 7.80184 54.4225 7.0717 53.5975 6.87548L28.1435 0.727737C27.7227 0.627344 27.2782 0.626431 26.8556 0.727737L1.40433 6.87365C0.5775 7.07079 0 7.80092 0 8.64879V10.6904C0 11.6971 0.82225 12.5158 1.83333 12.5158V14.3411C1.83333 15.0137 2.20458 15.596 2.75 15.9127V46.2854C1.73892 46.2854 0.916667 47.1041 0.916667 48.1108V50.1898C0.37125 50.5065 0 51.0888 0 51.7615V53.5868C0 54.5935 0.82225 55.4121 1.83333 55.4121ZM53.1667 53.5868H1.83333V51.7615H53.1667V53.5868ZM10.0833 46.2854V15.9136C10.6287 15.5969 11 15.0147 11 14.342V12.5167H44V14.342C44 15.0147 44.3713 15.5969 44.9167 15.9136V46.2854H10.0833ZM51.3343 14.342H45.8333V12.5167H51.3333L51.3343 14.342ZM46.7509 16.1674H50.4176V46.2854H46.7509V16.1674ZM1.83425 8.64788L27.2864 2.50288C27.3561 2.48554 27.4285 2.47732 27.5 2.47732C27.5715 2.47732 27.643 2.48554 27.7127 2.50197L53.1676 8.64879V10.6913H1.83333L1.83425 8.64788ZM9.16758 12.5167V14.342H3.66667V12.5167H9.16667H9.16758ZM4.58425 16.1674H8.25092V46.2854H4.58333L4.58425 16.1674ZM2.75 48.1108H52.25V49.9361H2.75V48.1108Z" fill="white" />
    <path d="M40.3333 16.1674H31.1667C29.6688 16.1674 28.3369 16.8866 27.5 17.9955C26.6631 16.8866 25.3312 16.1674 23.8333 16.1674H14.6667C13.1505 16.1674 11.9167 17.3959 11.9167 18.9054V38.9842C11.9167 40.4937 13.1505 41.7222 14.6667 41.7222H23.8333C24.6996 41.7222 25.4971 42.1164 26.0232 42.8037C26.3817 43.271 26.9197 43.5393 27.5 43.5393C28.0802 43.5393 28.6192 43.2719 28.9767 42.8037C29.502 42.1164 30.2995 41.7222 31.1667 41.7222H40.3333C41.8495 41.7222 43.0833 40.4937 43.0833 38.9842V18.9054C43.0833 17.3959 41.8495 16.1674 40.3333 16.1674ZM23.8333 39.8968H14.6667C14.1607 39.8968 13.75 39.487 13.75 38.9842V18.9054C13.75 18.4025 14.1607 17.9928 14.6667 17.9928H23.8333C25.3495 17.9928 26.5833 19.2212 26.5833 20.7308V40.815C25.8005 40.2263 24.8462 39.8968 23.8333 39.8968ZM41.25 38.9842C41.25 39.487 40.8393 39.8968 40.3333 39.8968H31.1667C30.1583 39.8968 29.2096 40.2226 28.4167 40.8058V20.7308C28.4167 19.2212 29.6505 17.9928 31.1667 17.9928H40.3333C40.8393 17.9928 41.25 18.4025 41.25 18.9054V38.9842Z" fill="white" />
</svg>