<svg xmlns="http://www.w3.org/2000/svg" width="55" height="55" viewBox="0 0 55 55" fill="none">
    <g clip-path="url(#clip0_86_3229)">
        <path d="M12.4193 17.7419V24.8387H14.1935V17.7419H17.7419V15.9677H14.1935C13.215 15.9677 12.4193 16.7634 12.4193 17.7419Z" fill="white" />
        <path d="M12.4193 26.6129H14.1935V28.3871H12.4193V26.6129Z" fill="white" />
        <path d="M12.4193 30.1613H14.1935V31.9355H12.4193V30.1613Z" fill="white" />
        <path d="M39.0323 31.9355H40.8065V33.7097H39.0323V31.9355Z" fill="white" />
        <path d="M39.0323 35.4839H40.8065V37.2581H39.0323V35.4839Z" fill="white" />
        <path d="M39.0323 28.3871H40.8065V30.1613H39.0323V28.3871Z" fill="white" />
        <path d="M3.5484 30.1613H5.32259V31.9355H3.5484V30.1613Z" fill="white" />
        <path d="M3.5484 37.2581H5.32259V39.0323H3.5484V37.2581Z" fill="white" />
        <path d="M3.5484 33.7097H5.32259V35.4838H3.5484V33.7097Z" fill="white" />
        <path d="M50.5645 0H23.9516C21.506 0 19.5161 1.9899 19.5161 4.43548V12.4194H13.3065C10.8609 12.4194 8.87097 14.4093 8.87097 16.8548V24.8387H4.43548C1.9899 24.8387 0 26.8286 0 29.2742V50.5645C0 53.0101 1.9899 55 4.43548 55H31.0484C33.494 55 35.4839 53.0101 35.4839 50.5645V42.5806H39.9194C42.3649 42.5806 44.3548 40.5907 44.3548 38.1452V30.1613H50.5645C53.0101 30.1613 55 28.1714 55 25.7258V4.43548C55 1.9899 53.0101 0 50.5645 0ZM33.7097 50.5645C33.7097 52.0316 32.5155 53.2258 31.0484 53.2258H4.43548C2.9684 53.2258 1.77419 52.0316 1.77419 50.5645V29.2742C1.77419 27.8071 2.9684 26.6129 4.43548 26.6129H8.87097V38.1452C8.87097 40.5907 10.8609 42.5806 13.3065 42.5806H33.7097V50.5645ZM42.5806 38.1452C42.5806 39.6123 41.3864 40.8065 39.9194 40.8065H13.3065C11.8394 40.8065 10.6452 39.6123 10.6452 38.1452V16.8548C10.6452 15.3878 11.8394 14.1935 13.3065 14.1935H39.9194C41.3864 14.1935 42.5806 15.3878 42.5806 16.8548V38.1452ZM49.6774 7.09677H37.2581V5.32258H49.6774V7.09677ZM53.2258 25.7258C53.2258 27.1929 52.0316 28.3871 50.5645 28.3871H44.3548V16.8548C44.3548 14.4093 42.3649 12.4194 39.9194 12.4194H37.2581V8.87097H49.6774V17.9052C49.3989 17.8056 49.1026 17.7419 48.7903 17.7419C47.3232 17.7419 46.129 18.9361 46.129 20.4032C46.129 21.8703 47.3232 23.0645 48.7903 23.0645C50.2574 23.0645 51.4516 21.8703 51.4516 20.4032V3.54839H35.4839V12.4194H21.2903V4.43548C21.2903 2.9684 22.4845 1.77419 23.9516 1.77419H50.5645C52.0316 1.77419 53.2258 2.9684 53.2258 4.43548V25.7258ZM49.6774 20.4032C49.6774 20.8927 49.2798 21.2903 48.7903 21.2903C48.3009 21.2903 47.9032 20.8927 47.9032 20.4032C47.9032 19.9138 48.3009 19.5161 48.7903 19.5161C49.2798 19.5161 49.6774 19.9138 49.6774 20.4032Z" fill="white" />
        <path d="M19.5161 36.0323L36.5802 27.5L19.5161 18.9678V36.0323ZM21.2903 21.8387L32.6134 27.5L21.2903 33.1613V21.8387Z" fill="white" />
        <path d="M13.3065 46.129H7.98388V47.9032H3.5484V49.6774H7.98388V51.4516H13.3065V49.6774H31.9355V47.9032H13.3065V46.129ZM11.5323 49.6774H9.75808V47.9032H11.5323V49.6774Z" fill="white" />
        <path d="M23.0645 3.5484H33.7097V5.32259H23.0645V3.5484Z" fill="white" />
        <path d="M23.0645 7.0968H33.7097V8.871H23.0645V7.0968Z" fill="white" />
    </g>
    <defs>
        <clipPath id="clip0_86_3229">
            <rect width="55" height="55" fill="white" />
        </clipPath>
    </defs>
</svg>