<svg xmlns="http://www.w3.org/2000/svg" width="65" height="64" viewBox="0 0 65 64" fill="none">
    <path d="M58.8838 17.6533C58.6132 17.0017 58.0954 16.4839 57.4438 16.2133C57.1232 16.0767 56.779 16.0042 56.4305 16H43.0971C42.3899 16 41.7116 16.281 41.2115 16.781C40.7114 17.2811 40.4305 17.9594 40.4305 18.6667C40.4305 19.3739 40.7114 20.0522 41.2115 20.5523C41.7116 21.0524 42.3899 21.3333 43.0971 21.3333H50.0038L35.0971 36.24L26.3238 27.44C26.0759 27.1901 25.781 26.9917 25.456 26.8563C25.1311 26.7209 24.7825 26.6512 24.4305 26.6512C24.0784 26.6512 23.7299 26.7209 23.4049 26.8563C23.08 26.9917 22.785 27.1901 22.5371 27.44L6.53715 43.44C6.28721 43.6879 6.08882 43.9828 5.95344 44.3078C5.81805 44.6328 5.74835 44.9813 5.74835 45.3333C5.74835 45.6854 5.81805 46.0339 5.95344 46.3589C6.08882 46.6838 6.28721 46.9788 6.53715 47.2267C6.78505 47.4766 7.07999 47.675 7.40494 47.8104C7.7299 47.9458 8.07845 48.0155 8.43048 48.0155C8.78251 48.0155 9.13106 47.9458 9.45602 47.8104C9.78098 47.675 10.0759 47.4766 10.3238 47.2267L24.4305 33.0933L33.2038 41.8933C33.4517 42.1433 33.7467 42.3417 34.0716 42.477C34.3966 42.6124 34.7451 42.6821 35.0971 42.6821C35.4492 42.6821 35.7977 42.6124 36.1227 42.477C36.4476 42.3417 36.7426 42.1433 36.9905 41.8933L53.7638 25.0933V32C53.7638 32.7072 54.0448 33.3855 54.5449 33.8856C55.045 34.3857 55.7232 34.6667 56.4305 34.6667C57.1377 34.6667 57.816 34.3857 58.3161 33.8856C58.8162 33.3855 59.0971 32.7072 59.0971 32V18.6667C59.0929 18.3182 59.0205 17.9739 58.8838 17.6533Z" fill="#FCBD0E" />
</svg>